<?xml version="1.0" encoding="UTF-8"?>
<svg xmlns="http://www.w3.org/2000/svg" xmlns:xlink="http://www.w3.org/1999/xlink" width="3001" height="3001" viewBox="0 0 3001 3001">
<path fill-rule="evenodd" fill="rgb(100%, 100%, 100%)" fill-opacity="1" d="M 0.386719 0.960938 L 3000.390625 0.960938 L 3000.390625 3000.957031 L 0.386719 3000.957031 L 0.386719 0.960938 "/>
<path fill-rule="evenodd" fill="rgb(0%, 0%, 0%)" fill-opacity="1" d="M 1390.808594 1625.148438 L 1571.269531 1729.359375 L 1572.480469 1730.121094 L 1753.078125 1834.378906 C 1764.648438 1841.019531 1768.640625 1855.808594 1761.988281 1867.378906 C 1759.789062 1871.230469 1756.671875 1874.230469 1753.078125 1876.289062 L 1571.25 1981.25 L 1571.269531 1981.289062 L 1389.378906 2086.316406 C 1377.808594 2093.023438 1362.980469 2089.070312 1356.28125 2077.503906 C 1354.058594 2073.675781 1353.011719 2069.488281 1353.011719 2065.359375 L 1352.949219 2065.359375 L 1352.949219 1645.28125 C 1352.949219 1631.871094 1363.828125 1621 1377.230469 1621 C 1382.269531 1621 1386.941406 1622.53125 1390.808594 1625.148438 Z M 2008.820312 774.839844 L 2122.878906 844.058594 L 2097.941406 750.960938 Z M 1841.570312 819.660156 L 1998.28125 914.738281 L 2100.878906 887.25 L 1944.179688 792.171875 Z M 1674.289062 864.480469 L 1831.019531 959.570312 L 1933.640625 932.070312 L 1776.921875 836.980469 Z M 1507.03125 909.300781 L 1663.71875 1004.378906 L 1766.351562 976.878906 L 1609.640625 881.800781 L 1515.53125 907.019531 Z M 1339.75 954.121094 L 1496.460938 1049.210938 L 1599.089844 1021.710938 L 1442.390625 926.621094 Z M 1172.488281 998.929688 L 1329.191406 1094.019531 L 1431.808594 1066.53125 L 1275.109375 971.441406 Z M 1005.230469 1043.75 L 1161.941406 1138.839844 L 1264.558594 1111.339844 L 1107.851562 1016.261719 Z M 837.964844 1088.570312 L 994.65625 1183.648438 L 1097.289062 1156.160156 L 940.585938 1061.078125 Z M 840.902344 1224.859375 L 930.019531 1200.980469 L 815.960938 1131.769531 Z M 848.039062 1375.058594 L 940.15625 1278.828125 L 848.039062 1278.828125 Z M 986.65625 1411.148438 L 1113.339844 1278.828125 L 1007.199219 1278.828125 L 880.519531 1411.148438 Z M 1159.839844 1411.148438 L 1286.511719 1278.828125 L 1180.371094 1278.828125 L 1053.699219 1411.148438 Z M 1333 1411.148438 L 1459.671875 1278.828125 L 1353.539062 1278.828125 L 1226.871094 1411.148438 Z M 1506.160156 1411.148438 L 1632.839844 1278.828125 L 1526.699219 1278.828125 L 1400.03125 1411.148438 Z M 1679.339844 1411.148438 L 1806.011719 1278.828125 L 1699.878906 1278.828125 L 1573.199219 1411.148438 Z M 1852.5 1411.148438 L 1979.171875 1278.828125 L 1873.039062 1278.828125 L 1746.371094 1411.148438 Z M 2025.671875 1411.148438 L 2152.339844 1278.828125 L 2046.210938 1278.828125 L 1919.53125 1411.148438 Z M 2092.699219 1411.148438 L 2184.820312 1411.148438 L 2184.820312 1314.929688 Z M 848.039062 1459.710938 L 848.039062 2138.351562 C 848.039062 2169.296875 860.71875 2197.453125 881.125 2217.863281 C 901.539062 2238.28125 929.695312 2250.953125 960.648438 2250.953125 L 2072.210938 2250.953125 C 2103.230469 2250.953125 2131.378906 2238.308594 2151.71875 2217.957031 L 2151.820312 2217.863281 C 2172.171875 2197.515625 2184.820312 2169.367188 2184.820312 2138.351562 L 2184.820312 1459.710938 L 848.039062 1459.710938 "/>
</svg>
